<svg width="150" height="30" viewBox="0 0 150 30" fill="none" xmlns="http://www.w3.org/2000/svg">
<g opacity="0.95">
<path d="M16.2495 9.34594C16.9997 8.04657 18.8751 8.04658 19.6253 9.34594L20.4747 10.8173C20.5742 10.9896 20.5742 11.2018 20.4747 11.3741L15.6981 19.6481C15.1238 20.6428 15.1791 21.7584 15.6592 22.6412C15.7715 22.8477 15.6339 23.1286 15.3989 23.1286H11.6681C10.1677 23.1286 9.2299 21.5044 9.98007 20.205L16.2495 9.34594Z" fill="#E5A657"/>
<path d="M22.9925 9.34594C23.7427 8.04657 25.618 8.04658 26.3682 9.34594L27.3569 11.0585C27.4563 11.2307 27.4563 11.443 27.3569 11.6153L22.7195 19.6481C22.1452 20.6428 22.2004 21.7584 22.6806 22.6412C22.7929 22.8477 22.6553 23.1286 22.4203 23.1286H18.411C16.9106 23.1286 15.9728 21.5044 16.723 20.205L22.9925 9.34594Z" fill="#DA2B31"/>
<path d="M29.8746 9.34594C30.6248 8.04656 32.5003 8.04656 33.2505 9.34594L39.5199 20.205C40.2701 21.5044 39.3324 23.1286 37.832 23.1286H25.293C23.7926 23.1286 22.8549 21.5044 23.6051 20.205L29.8746 9.34594Z" fill="#9F1C22"/>
</g>
<path d="M130.382 19.4175L129.051 23.25H125.91L131.382 8.25H135.087L140.538 23.25H137.429L136.098 19.4175H130.382ZM133.235 10.5601C133.164 10.844 133.064 11.1847 132.937 11.5822C132.809 11.9796 132.717 12.2599 132.66 12.4232L131.084 17.0541H135.396L133.778 12.3274C133.678 12.0364 133.586 11.7418 133.501 11.4438C133.416 11.1457 133.327 10.8511 133.235 10.5601Z" fill="black"/>
<path d="M121.463 20.8227V23.25H109.231V8.25H121.027V10.6773H112.372V14.4459H120.377V16.8731H112.372V20.8227H121.463Z" fill="black"/>
<path d="M104.703 15.6382C104.703 17.2422 104.39 18.612 103.766 19.7475C103.148 20.8831 102.29 21.7525 101.189 22.3557C100.097 22.9519 98.8332 23.25 97.3996 23.25H91.3314V8.25H96.7608C99.2874 8.25 101.243 8.88875 102.627 10.1663C104.011 11.4367 104.703 13.2606 104.703 15.6382ZM101.541 15.6382C101.541 14.0271 101.122 12.7993 100.285 11.9548C99.4471 11.1031 98.2512 10.6773 96.6969 10.6773H94.4719V20.8227H97.1334C98.0348 20.8227 98.8119 20.6134 99.4648 20.1946C100.125 19.7688 100.636 19.1691 100.998 18.3955C101.36 17.6219 101.541 16.7028 101.541 15.6382Z" fill="black"/>
<path d="M86.7141 8.25V23.25H83.5736V8.25H86.7141Z" fill="black"/>
<path d="M68.3601 17.5545V23.25H65.2196V8.25H72.7143C74.5028 8.25 75.8832 8.6368 76.8555 9.4104C77.8278 10.1769 78.314 11.2805 78.314 12.7213C78.314 13.7716 78.0159 14.6801 77.4197 15.4466C76.8236 16.206 76.018 16.7064 75.0031 16.9477L79.0592 23.25H75.5248L72.0436 17.5545H68.3601ZM75.1522 12.849C75.1522 12.1322 74.9215 11.5928 74.4602 11.2308C73.9989 10.8689 73.3069 10.6879 72.3843 10.6879H68.3601V15.1166H72.4694C73.3495 15.1166 74.0166 14.9178 74.4708 14.5204C74.9251 14.123 75.1522 13.5658 75.1522 12.849Z" fill="black"/>
<path d="M55.6094 10.6773V23.25H52.4689V10.6773H47.625V8.25H60.4639V10.6773H55.6094Z" fill="black"/>
</svg>
