<svg width="100" height="20" viewBox="0 0 100 20" fill="none" xmlns="http://www.w3.org/2000/svg">
<g opacity="0.95">
<path d="M10.8331 6.23063C11.3332 5.36438 12.5835 5.36439 13.0836 6.23063L13.6499 7.21151C13.7162 7.32637 13.7162 7.46788 13.6499 7.58274L10.4654 13.0987C10.0826 13.7618 10.1194 14.5056 10.4395 15.0942C10.5144 15.2318 10.4227 15.4191 10.266 15.4191H7.77877C6.77852 15.4191 6.15331 14.3362 6.65342 13.47L10.8331 6.23063Z" fill="#E5A657"/>
<path d="M15.3283 6.23063C15.8284 5.36438 17.0787 5.36439 17.5788 6.23063L18.2379 7.3723C18.3042 7.48716 18.3042 7.62867 18.2379 7.74353L15.1463 13.0987C14.7635 13.7618 14.8003 14.5056 15.1204 15.0942C15.1952 15.2318 15.1035 15.4191 14.9468 15.4191H12.274C11.2738 15.4191 10.6485 14.3362 11.1487 13.47L15.3283 6.23063Z" fill="#DA2B31"/>
<path d="M19.9163 6.23062C20.4165 5.36437 21.6668 5.36437 22.1669 6.23062L26.3466 13.47C26.8467 14.3362 26.2216 15.4191 25.2213 15.4191H16.862C15.8617 15.4191 15.2366 14.3362 15.7367 13.47L19.9163 6.23062Z" fill="#9F1C22"/>
</g>
<path d="M86.921 12.945L86.0339 15.5H83.9402L87.5882 5.5H90.058L93.6918 15.5H91.6194L90.7322 12.945H86.921ZM88.8231 7.0401C88.7758 7.22936 88.7095 7.45647 88.6244 7.72143C88.5392 7.9864 88.4777 8.17329 88.4398 8.28211L87.3894 11.3694H90.2638L89.185 8.21824C89.1188 8.02425 89.0573 7.82789 89.0005 7.62917C88.9437 7.43045 88.8846 7.23409 88.8231 7.0401Z" fill="black"/>
<path d="M80.9755 13.8818V15.5H72.8208V5.5H80.6845V7.11817H74.9145V9.63059H80.2516V11.2488H74.9145V13.8818H80.9755Z" fill="black"/>
<path d="M69.8017 10.4255C69.8017 11.4948 69.5935 12.408 69.1771 13.165C68.7655 13.922 68.193 14.5017 67.4596 14.9038C66.731 15.3013 65.8888 15.5 64.933 15.5H60.8876V5.5H64.5072C66.1916 5.5 67.4951 5.92583 68.4177 6.7775C69.3404 7.62444 69.8017 8.84043 69.8017 10.4255ZM67.6938 10.4255C67.6938 9.35143 67.4147 8.53288 66.8563 7.96984C66.298 7.40206 65.5008 7.11817 64.4646 7.11817H62.9813V13.8818H64.7556C65.3565 13.8818 65.8746 13.7423 66.3099 13.4631C66.7499 13.1792 67.0906 12.7794 67.3319 12.2637C67.5732 11.7479 67.6938 11.1352 67.6938 10.4255Z" fill="black"/>
<path d="M57.8094 5.5V15.5H55.7157V5.5H57.8094Z" fill="black"/>
<path d="M45.5734 11.703V15.5H43.4797V5.5H48.4762C49.6685 5.5 50.5888 5.75787 51.237 6.2736C51.8852 6.7846 52.2093 7.52035 52.2093 8.48084C52.2093 9.1811 52.0106 9.78673 51.6132 10.2977C51.2157 10.804 50.6787 11.1376 50.0021 11.2984L52.7061 15.5H50.3499L48.0291 11.703H45.5734ZM50.1015 8.566C50.1015 8.08812 49.9477 7.72853 49.6401 7.48722C49.3326 7.24592 48.8713 7.12527 48.2562 7.12527H45.5734V10.0777H48.313C48.8997 10.0777 49.3444 9.94523 49.6472 9.68027C49.95 9.41531 50.1015 9.04388 50.1015 8.566Z" fill="black"/>
<path d="M37.0729 7.11817V15.5H34.9792V7.11817H31.75V5.5H40.3093V7.11817H37.0729Z" fill="black"/>
</svg>
